<svg xmlns="http://www.w3.org/2000/svg" viewBox="0 0 512 512" width="512" height="512"><rect width="512" height="512" rx="113" fill="#0B1120"/><rect x="138.2" y="102.4" width="47.7" height="47.7" fill="#22D3EE"/><rect x="185.3" y="102.4" width="47.7" height="47.7" fill="#22D3EE"/><rect x="279.6" y="102.4" width="47.7" height="47.7" fill="#22D3EE"/><rect x="326.7" y="102.4" width="47.7" height="47.7" fill="#22D3EE"/><rect x="91.1" y="149.5" width="47.7" height="47.7" fill="#22D3EE"/><rect x="138.2" y="149.5" width="47.7" height="47.7" fill="#22D3EE"/><rect x="185.3" y="149.5" width="47.7" height="47.7" fill="#22D3EE"/><rect x="232.4" y="149.5" width="47.7" height="47.7" fill="#22D3EE"/><rect x="279.6" y="149.5" width="47.7" height="47.7" fill="#22D3EE"/><rect x="326.7" y="149.5" width="47.7" height="47.7" fill="#22D3EE"/><rect x="373.8" y="149.5" width="47.7" height="47.7" fill="#22D3EE"/><rect x="91.1" y="196.6" width="47.7" height="47.7" fill="#22D3EE"/><rect x="138.2" y="196.6" width="47.7" height="47.7" fill="#22D3EE"/><rect x="185.3" y="196.6" width="47.7" height="47.7" fill="#22D3EE"/><rect x="232.4" y="196.6" width="47.7" height="47.7" fill="#22D3EE"/><rect x="279.6" y="196.6" width="47.7" height="47.7" fill="#22D3EE"/><rect x="326.7" y="196.6" width="47.7" height="47.7" fill="#22D3EE"/><rect x="373.8" y="196.6" width="47.7" height="47.7" fill="#22D3EE"/><rect x="138.2" y="243.7" width="47.7" height="47.7" fill="#22D3EE"/><rect x="185.3" y="243.7" width="47.7" height="47.7" fill="#22D3EE"/><rect x="232.4" y="243.7" width="47.7" height="47.7" fill="#22D3EE"/><rect x="279.6" y="243.7" width="47.7" height="47.7" fill="#22D3EE"/><rect x="326.7" y="243.7" width="47.7" height="47.7" fill="#22D3EE"/><rect x="185.3" y="290.8" width="47.7" height="47.7" fill="#22D3EE"/><rect x="232.4" y="290.8" width="47.7" height="47.7" fill="#22D3EE"/><rect x="279.6" y="290.8" width="47.7" height="47.7" fill="#22D3EE"/><rect x="232.4" y="337.9" width="47.7" height="47.7" fill="#22D3EE"/>
    <path d="M 256 307.8
             C 201.8 231.9, 201.8 177.8, 256 177.8
             C 310.2 177.8, 310.2 231.9, 256 307.8 Z"
          fill="#A855F7"/>
    <circle cx="256" cy="218.4" r="22.8" fill="#0B1120"/></svg>